<svg xmlns="http://www.w3.org/2000/svg" version="1.1" xmlns:xlink="http://www.w3.org/1999/xlink" width="512" height="512" x="0" y="0" viewBox="0 0 512 512" style="enable-background:new 0 0 512 512" xml:space="preserve"><defs><linearGradient id="a" x1="256" x2="256" y1="512" y2="0" gradientUnits="userSpaceOnUse"><stop offset="0" stop-color="white"></stop><stop offset="1" stop-color="white"></stop></linearGradient></defs><g><linearGradient id="a" x1="256" x2="256" y1="512" y2="0" gradientUnits="userSpaceOnUse"><stop offset="0" stop-color="white"></stop><stop offset="1" stop-color="white"></stop></linearGradient><path fill="url(&quot;#a&quot;)" d="M497 30h-48.58C442.228 12.541 425.555 0 406 0H106C86.445 0 69.772 12.541 63.58 30H15C6.716 30 0 36.716 0 45s6.716 15 15 15h46v437c0 8.284 6.716 15 15 15h360c8.284 0 15-6.716 15-15V60h46c8.284 0 15-6.716 15-15s-6.716-15-15-15zm-76 452H91v-31h330zm0-61H91V271h330zm0-180H91v-30h330zm0-60H91V45c0-8.271 6.729-15 15-15h300c8.271 0 15 6.729 15 15zM140.394 395.396c2.929 2.929 6.768 4.393 10.606 4.393s7.678-1.464 10.606-4.393l38.789-38.789a14.926 14.926 0 0 0 3.104-4.551 14.944 14.944 0 0 0 3.104 4.551l38.789 38.789c2.929 2.929 6.768 4.393 10.606 4.393s7.678-1.464 10.606-4.393l38.789-38.789a14.926 14.926 0 0 0 3.104-4.551 14.944 14.944 0 0 0 3.104 4.551l38.789 38.789c2.929 2.929 6.768 4.393 10.606 4.393s7.678-1.464 10.606-4.393l38.789-38.789c5.858-5.858 5.858-15.355 0-21.213l-38.789-38.789c-5.857-5.858-15.355-5.858-21.213 0L311.6 335.394a14.914 14.914 0 0 0-3.104 4.551 14.944 14.944 0 0 0-3.104-4.551l-38.789-38.789c-5.857-5.858-15.355-5.858-21.213 0l-38.789 38.789a14.914 14.914 0 0 0-3.104 4.551 14.944 14.944 0 0 0-3.104-4.551l-38.789-38.789c-5.857-5.858-15.355-5.858-21.213 0l-38.789 38.789c-5.858 5.858-5.858 15.355 0 21.213zM361 328.424 378.576 346 361 363.576 343.424 346zm-105 0L273.576 346 256 363.576 238.424 346zm-105 0L168.576 346 151 363.576 133.424 346z" opacity="1" data-original="url(#a)"></path></g></svg>